<svg width="128" height="125" viewBox="0 0 128 125" fill="none" xmlns="http://www.w3.org/2000/svg">
<path d="M128 124.121H0V0H128V124.121ZM3.87891 120.242H62.0605V62.0605H65.9395V120.242H124.121V3.87891H3.87891V120.242ZM120.242 116.363H69.8184V58.1816H58.1816V116.363H7.75781V7.75781H120.242V116.363ZM11.6367 112.485H54.3027V54.3027H73.6973V112.485H116.363V11.6367H11.6367V112.485ZM112.484 108.606H77.5762V50.4248H50.4238V108.606H15.5156V15.5156H112.484V108.606ZM19.3936 104.728H46.5459V46.5459H81.4541V104.728H108.606V19.3936H19.3936V104.728ZM104.729 100.848H85.334V42.667H42.666V100.848H23.2715V23.2725H104.729V100.848Z" fill="#FF4365"/>
</svg>
