<svg width="1280" height="116" viewBox="0 0 1280 116" fill="none" xmlns="http://www.w3.org/2000/svg">
<g clip-path="url(#clip0_292_2177)">
<path d="M391.145 156.371H281.855V0H234V200L439 199.743V0H391.145V156.371Z" fill="white"/>
<path d="M-22.8702 199.871H171.671V156.141H25.0188V120.772H184V0H-23V200L-22.8702 199.871ZM25.0188 43.3858H136.111V81.4148H25.0188V43.3858Z" fill="white"/>
<path d="M485 200H532.947V44.4587H623.915V200H671.473V44.4587H762.442V200H810V0H485V200Z" fill="white"/>
<path d="M1100 0.128826V200H1147.85V43.6293H1257.15V200H1305V0L1100 0.128826Z" fill="white"/>
<path d="M1053.37 0.128555L858.829 0.128538L858.829 43.8585L1005.48 43.8586L1005.48 79.2283L846.5 79.2283L846.5 200L1053.5 200L1053.5 0L1053.37 0.128555ZM1005.48 156.614L894.389 156.614L894.389 118.585L1005.48 118.585L1005.48 156.614Z" fill="white"/>
</g>
<defs>
<clipPath id="clip0_292_2177">
<rect width="1835" height="116" fill="white" transform="translate(-277.5)"/>
</clipPath>
</defs>
</svg>
