<svg width="23" height="413" viewBox="0 0 23 413" fill="none" xmlns="http://www.w3.org/2000/svg">
<path d="M35.1835 262.318L35.1835 286.908L1.75767e-05 286.908L1.80474e-05 297.675L45.0001 297.675L44.9422 251.55L1.60312e-05 251.55L1.65018e-05 262.318L35.1835 262.318Z" fill="#FF4365"/>
<path d="M0.0290039 412.876L45.0001 412.876L45.0001 402.108L9.81663 402.108L9.81663 377.518L45.0001 377.518L45.0001 366.751L1.60312e-05 366.751L0.0290039 412.876Z" fill="#FF4365"/>
<path d="M0.0290039 46.1252L45.0001 46.1252L45.0001 35.3801L9.81663 35.3801L9.81663 10.7742L45.0001 10.7742L45.0001 8.01086e-05L1.60312e-05 8.20757e-05L0.0290039 46.1252Z" fill="#FF4365"/>
<path d="M44.9712 355.471L44.9712 311.7L35.1319 311.7L35.1319 344.696L27.1737 344.696L27.1737 308.926L1.60115e-05 308.926L1.80474e-05 355.501L45.0001 355.501L44.9712 355.471ZM9.08684 344.696L9.08684 319.701L18.3184 319.701L18.3184 344.696L9.08684 344.696Z" fill="#FF4365"/>
<path d="M45.0001 241.2L45.0001 230.412L10.0032 230.412L10.0032 209.944L45.0001 209.944L45.0001 199.244L10.0032 199.244L10.0032 178.776L45.0001 178.776L45.0001 168.075L1.4851e-05 168.075L1.80474e-05 241.2L45.0001 241.2Z" fill="#FF4365"/>
<path d="M0.0290039 102.825L45.0001 102.825L45.0001 92.058L9.81663 92.058L9.81663 67.4676L45.0001 67.4676L45.0001 56.7003L1.60312e-05 56.7003L0.0290039 102.825Z" fill="#FF4365"/>
<path d="M0.0289851 156.989L9.86821 156.989L9.86821 124.152L17.8264 124.152L17.8264 159.75L45.0001 159.75L45.0001 113.4L1.60213e-05 113.4L1.79254e-05 156.96L0.0289851 156.989ZM35.9133 124.181L35.9133 149.056L26.6817 149.056L26.6817 124.181L35.9133 124.181Z" fill="#FF4365"/>
</svg>
